<svg width="1310" height="1337" viewBox="0 0 1310 1337" fill="none" xmlns="http://www.w3.org/2000/svg">
<path d="M982.967 498.563C974.734 499.176 959.328 496.471 950.631 495.314C950.477 495.293 950.322 495.272 950.166 495.251C948.16 494.97 946.243 494.784 943.98 494.581C938.525 494.124 931.338 493.42 915.94 491.805C911.517 491.753 907.045 491.736 902.527 491.751C854.263 491.925 805.932 497.051 758.634 508.437C758.047 508.614 757.45 508.794 756.846 508.979C745.063 512.531 730.903 517.496 721.76 520.098C710.133 523.378 702.148 525.754 695.667 527.692C659.289 541.32 624.269 559.157 591.856 580.989C581.642 587.868 571.812 595.04 562.113 602.7C553.194 609.748 544.661 616.959 536.168 624.604C531.568 629.225 527.286 633.804 523.338 638.131C517.71 644.286 513.098 649.596 508.966 653.98C505.822 657.318 502.467 660.768 499.068 664.23C491.273 672.186 483.425 679.412 477.186 684.993C475.69 686.332 474.284 687.581 472.991 688.728C465.628 696.197 458.402 703.295 451.35 709.979C450.758 710.291 450.16 710.599 449.552 710.909C441.383 715.256 433.643 722.108 420.598 732.504C414.642 737.22 408.295 742.098 400.015 747.787C394.521 751.548 391.321 752.647 388.715 753.554C387.949 753.817 387.234 754.061 386.534 754.336C384.095 755.303 382.372 757.099 379.897 759.446C376.667 762.498 372.764 766.107 366.606 768.48C346.425 776.201 338.676 781.172 332.357 785.36C330.551 786.536 328.915 787.57 327.181 788.417C321.113 791.352 312.173 793.183 304.885 793.654C299.159 794.112 288.232 796.582 279.53 797.72C276.436 798.185 271.506 798.18 266.295 797.739C260.954 797.308 254.237 796.315 247.506 794.976C230.128 791.317 221.458 786.227 214.847 782.548C212.976 781.456 211.238 780.367 209.534 779.244C204.157 775.725 197.95 770.703 192.335 765.109C185.544 758.4 179.634 750.943 175.331 745.128C165.664 729.098 159.082 712.14 154.78 694.431C152.583 685.293 152.713 675.94 155.203 668.676C155.809 666.663 156.578 665.04 157.447 663.744C158.317 662.023 159.336 660.695 160.415 659.789C160.935 659.452 161.557 658.672 162.182 658.221C162.808 657.741 163.452 657.408 164.073 657.226C165.329 656.848 166.411 657.152 167.247 657.74C170.4 660.429 174.025 661.995 177.431 666.924C180.856 671.685 183.969 678.378 186.343 685.693C191.141 700.457 198.042 714.5 206.721 726.702C217.272 741.545 230.558 753.257 245.783 759.699C256.429 764.258 268.086 766.241 280.341 765.892C281.58 765.858 282.839 765.801 284.12 765.718C294.431 763.896 304.398 760.432 311.603 757.782C317.724 755.533 321.781 754.505 325.84 753.343C328.562 752.561 331.084 751.757 333.184 750.746C334.354 750.183 335.95 749.371 337.905 748.335C346.171 744.044 359.466 735.991 371.819 728.905C377.212 725.869 384.514 721.797 390.359 718.484C399.042 713.549 408.055 707.712 411.21 704.676C417.197 699.016 425.496 692.551 432.178 687.152C438.473 682.091 444.146 677.301 446.775 673.872C449.93 669.76 453.344 666.947 458.01 663.071C461.306 660.317 465.377 656.882 470.733 651.676C473.578 648.908 476.131 646.519 478.456 644.399C481.188 641.907 483.587 639.869 485.778 638.027C491.502 633.229 495.755 629.762 501.057 623.388C507.083 616.185 513.764 609.203 519.616 604.506C522.306 602.342 525.336 599.666 528.455 596.967C532.593 593.385 536.963 589.703 541.228 586.753C544.784 584.287 548.135 582.665 551.055 581.289C551.969 580.858 552.844 580.446 553.68 580.036C556.389 577.934 559.099 575.861 561.807 573.814C562.17 573.382 562.549 572.923 562.945 572.446C564.892 570.084 567.506 567.045 571.046 563.967C576.7 559.066 582.186 555.846 588.202 552.424C592.889 549.762 597.758 547.076 603.036 543.626C606.603 541.293 610.702 538.417 614.769 535.643C620.826 531.508 626.736 527.65 631.322 525.49C633.034 524.684 634.697 524.357 636.339 524.045C636.347 524.045 636.355 524.044 636.362 524.043C636.474 524.022 636.585 524 636.697 523.979C647.203 517.931 657.969 512.134 668.8 506.709C669.699 506.157 670.609 505.605 671.512 505.062C675.981 502.38 680.41 499.829 683.099 497.781C686.026 495.55 694.033 491.655 702.76 487.776C708.453 485.236 714.235 482.771 719.12 480.567C721.941 479.289 724.873 478.86 727.872 478.449C730.671 478.065 733.531 477.696 736.448 476.667C737.932 476.144 739.507 475.442 741.18 474.705C742.654 474.056 744.213 473.375 745.871 472.761C747.411 472.192 750.995 471.458 755.559 470.601C758.347 470.079 761.657 469.471 765.04 468.833C773.786 466.303 782.542 464.006 791.435 461.923C793.202 461.105 794.699 460.212 795.832 459.224C796.645 458.515 797.303 457.73 797.983 456.928C798.905 455.837 799.871 454.708 801.337 453.687C802.479 452.89 803.907 452.402 804.932 452.469C805.41 452.5 805.798 452.648 806.149 452.782C806.552 452.936 806.911 453.073 807.307 453C807.593 452.947 807.865 452.743 808.201 452.495C808.736 452.1 809.435 451.589 810.592 451.386C814.913 450.625 819.73 450.014 824.652 449.455C830.067 448.84 835.313 448.33 839.446 447.748C844.113 447.087 850.961 446.972 857.646 447.012C862.261 447.039 867.113 447.11 871.116 447.045C875.079 446.977 879.067 446.467 883.073 446.007C887.882 445.454 892.479 444.987 896.365 445.44C897.151 445.532 898.132 446.146 899.353 446.918C900.211 447.466 901.225 448.094 902.378 448.675C907.378 448.658 912.327 448.732 917.218 448.89C917.392 448.809 917.572 448.727 917.752 448.643C917.755 448.641 917.758 448.639 917.761 448.637C921.83 446.742 927.691 444.185 935.369 446.229C937.31 446.749 938.529 447.588 939.631 448.344C940.71 449.088 941.668 449.755 943.112 449.981C944.753 450.238 946.722 449.965 948.862 449.683C951.881 449.287 955.156 448.86 958.508 449.845C958.734 449.912 958.975 449.985 959.227 450.059C961.615 450.763 965.122 451.824 968.456 453.613C978.904 455.197 989.244 457.141 999.566 459.455C1016.76 463.316 1033.69 468.152 1050.31 474.095C1058.32 476.961 1065.65 481.49 1070.17 486.43C1074.87 491.442 1076.24 496.277 1074.71 500.013C1073.15 503.753 1068.89 506.182 1062.48 507.031C1056.22 507.929 1048.45 507.264 1040.87 505.454C1028.44 502.458 1015.57 500.052 1002.94 498.196C1002.25 498.145 1001.57 498.092 1000.89 498.036C995.684 497.599 991.146 497.949 986.295 498.307C985.191 498.392 984.082 498.48 982.967 498.563Z" fill="#12232D"/>
<ellipse cx="746.013" cy="698.759" rx="20.0228" ry="30.0341" transform="rotate(34.1458 746.013 698.759)" fill="#12232D"/>
<path d="M759.211 727.385C758.455 728.977 755.656 730.479 754.051 731.153C754.022 731.166 753.993 731.179 753.964 731.192C753.581 731.36 753.232 731.537 752.821 731.738C751.828 732.205 750.504 732.905 747.321 733.5C746.449 733.817 745.543 734.098 744.623 734.328C738.567 735.932 730.448 735.397 724.342 730.713C720.63 727.948 718.06 723.979 716.783 720.124C716.727 720.001 716.671 719.876 716.616 719.749C715.512 717.294 714.787 714.177 714.883 712.251C714.988 709.801 715.369 708.245 715.707 706.993C716.699 699.799 719.505 693.581 722.927 687.97C723.633 686.821 724.368 685.704 725.136 684.601C725.548 684.011 725.96 683.439 726.387 682.861C727.513 681.344 728.71 679.867 729.98 678.444C730.616 677.521 731.23 676.63 731.834 675.813C732.677 674.67 733.501 673.673 734.277 672.964C736.145 671.238 738.785 669.879 740.817 669.07C741.146 668.937 741.465 668.813 741.758 668.701C743.272 667.841 744.87 667.068 746.577 666.423C746.71 666.449 746.849 666.478 746.988 666.509C748.71 666.919 750.475 666.406 753.553 666.227C754.892 666.164 756.487 666.188 758.361 666.582C759.569 666.844 760.101 667.365 760.502 667.774C760.621 667.896 760.731 668.011 760.845 668.114C761.235 668.466 761.777 668.422 762.45 668.417C763.309 668.406 764.433 668.482 765.324 669.507C765.426 669.624 765.524 669.738 765.62 669.85C768.07 672.846 769.403 673.664 770.718 674.387C771.097 674.608 771.435 674.822 771.712 675.092C772.621 675.964 773.141 677.676 773.194 678.964C773.262 679.986 774.123 681.7 774.786 683.046C775.043 683.558 775.174 684.287 775.281 685.141C775.392 686.026 775.476 687.04 775.672 688.118C776.151 690.848 776.164 692.317 776.199 693.485C776.205 693.823 776.206 694.128 776.206 694.439C776.204 695.422 776.101 696.629 775.94 697.83C775.749 699.28 775.476 700.718 775.306 701.843C774.204 704.522 772.829 707.03 771.282 709.379C770.488 710.583 769.138 711.393 767.587 711.558C766.036 711.722 764.425 711.25 763.063 710.323C761.699 709.396 760.663 708.099 760.059 706.774C759.463 705.441 759.352 704.185 759.739 703.185C760.529 701.158 761.126 699.106 761.564 697.076C762.097 694.607 762.392 692.174 762.497 689.885C762.571 688.278 762.504 686.741 762.277 685.33C762.253 685.185 762.229 685.044 762.202 684.901C761.528 683.842 760.783 683.081 760.364 682.607C760.018 682.214 759.999 681.823 759.954 681.466C759.924 681.224 759.884 681.008 759.743 680.885C759.667 680.819 759.554 680.74 759.416 680.653C759.197 680.515 758.917 680.36 758.607 680.19C758.119 679.921 757.593 679.638 757.038 679.213C756.64 678.904 756.117 678.437 755.483 678.05C754.593 677.489 753.491 677.128 752.986 677.33C752.103 677.674 751.004 677.71 749.969 677.849C748.989 677.976 748.099 678.184 747.75 678.638C747.332 679.182 746.822 679.275 746.043 679.465C745.501 679.6 744.83 679.783 744.011 680.225C743.064 680.739 742.309 681.007 741.662 681.251C740.752 681.6 740.054 681.902 739.511 682.893C738.912 683.992 738.245 685.037 737.494 685.649C737.149 685.929 736.822 686.314 736.492 686.72C736.05 687.263 735.61 687.837 735.078 688.276C734.643 688.634 734.11 688.818 733.64 688.985C733.494 689.037 733.353 689.089 733.223 689.145C733.076 689.357 732.931 689.573 732.788 689.79C732.681 689.953 732.576 690.116 732.473 690.28C732.476 690.369 732.482 690.465 732.488 690.564C732.518 691.06 732.562 691.666 732.41 692.27C732.172 693.225 731.623 693.85 731.054 694.544C730.615 695.077 730.164 695.657 729.886 696.424C729.697 696.946 729.576 697.579 729.477 698.201C729.327 699.127 729.228 700.029 728.935 700.585C728.825 700.792 728.576 700.927 728.329 701.066C728.327 701.066 728.326 701.067 728.324 701.067C728.308 701.077 728.291 701.086 728.275 701.096C728.009 702.605 727.87 704.114 727.866 705.584C727.902 705.717 727.938 705.849 727.974 705.979C728.15 706.611 728.349 707.214 728.67 707.595C729.016 708.015 729.202 708.996 729.497 709.951C729.687 710.575 729.92 711.185 730.207 711.628C730.374 711.888 730.225 712.186 730.082 712.503C729.949 712.8 729.821 713.113 729.954 713.372C730.021 713.502 730.15 713.62 730.288 713.738C730.41 713.84 730.541 713.947 730.644 714.064C730.739 714.173 730.746 714.493 730.785 714.893C730.808 715.14 730.846 715.42 730.916 715.695C731.4 716.241 731.91 716.669 732.432 717.002C732.65 716.956 732.885 716.849 733.139 716.668C733.322 716.538 733.521 716.366 733.72 716.185C733.99 715.939 734.26 715.677 734.488 715.475C734.667 715.318 734.762 715.272 734.739 715.373C734.738 715.378 734.737 715.383 734.735 715.388C734.721 715.436 734.689 715.505 734.661 715.569C734.625 715.651 734.594 715.724 734.609 715.731C734.62 715.736 734.664 715.691 734.717 715.635C734.802 715.546 734.908 715.429 734.947 715.447C735.096 715.512 735.234 715.638 735.394 715.757C735.57 715.889 735.777 716.01 735.979 716.012C736.199 716.013 736.475 716.303 736.866 716.565C737.134 716.747 737.448 716.913 737.739 716.969C738.02 717.025 738.323 716.874 738.607 716.714C738.954 716.522 739.273 716.319 739.627 716.451C739.699 716.478 739.83 716.706 740.005 716.988C740.129 717.187 740.275 717.413 740.436 717.614C740.879 717.503 741.337 717.378 741.802 717.238C741.807 717.2 741.813 717.162 741.818 717.123C741.818 717.122 741.818 717.121 741.818 717.12C741.943 716.231 741.99 715.055 742.93 715.345C743.174 715.416 743.412 715.642 743.633 715.841C743.85 716.037 744.048 716.209 744.206 716.187C744.387 716.161 744.494 715.921 744.603 715.659C744.759 715.29 744.918 714.879 745.349 714.931C745.379 714.935 745.411 714.939 745.444 714.942C745.759 714.974 746.226 715.014 746.859 715.269C747.923 714.76 749 714.183 750.063 713.545C751.838 712.48 753.59 711.237 755.253 709.814C756.06 709.129 757.272 708.791 758.718 708.862C760.161 708.941 761.723 709.416 763.063 710.323C764.402 711.229 765.419 712.526 765.85 714.009C766.28 715.492 766.063 717.034 765.295 718.226C764.04 720.171 762.634 722.057 761.05 723.84C760.98 723.949 760.908 724.057 760.835 724.162C760.293 724.946 759.917 725.853 759.505 726.76C759.412 726.968 759.313 727.178 759.211 727.385Z" fill="#12232D"/>
<path d="M910.711 801.973C910.928 806.925 907.179 814.893 905.156 819.296C905.12 819.377 905.083 819.458 905.047 819.539C904.566 820.583 904.178 821.596 903.728 822.783C902.66 825.612 901.2 829.44 897.292 837.128C896.54 839.494 895.778 841.852 895.003 844.198C886.622 869.609 877.559 894.764 869.95 920.186C869.887 920.517 869.824 920.853 869.761 921.192C868.532 927.691 867.222 935.733 865.667 940.646C863.708 946.709 862.238 951.141 861.065 954.567C856.997 974.326 854.493 996.487 860.357 1010.97C862.286 1015.44 864.61 1017.98 867.575 1019.37C870.365 1020.71 874.447 1021.09 878.921 1020.44C881.753 1019.69 884.184 1018.63 886.56 1017.48C888.246 1016.67 889.934 1015.8 891.588 1014.94C892.989 1014.17 894.296 1013.45 895.571 1012.82C902.064 1009.64 909.27 1006.61 915.329 1003.67C916.312 1003.19 917.254 1002.72 918.131 1002.28C921.992 999.627 926.045 996.682 930.3 993.438C930.686 993.371 931.079 993.306 931.48 993.24C936.813 992.175 940.391 989.651 947.511 984.263C950.528 981.973 954.361 978.996 958.143 976.193C960.705 974.288 962.557 973.884 964.07 973.554C964.516 973.456 964.935 973.362 965.335 973.236C966.706 972.803 967.447 971.459 968.329 969.857C969.476 967.776 970.851 965.269 974.239 963.654C984.275 959.126 986.517 954.368 988.266 950.76C988.776 949.7 989.242 948.736 989.85 947.889C991.752 945.208 996.087 942.293 999.111 940.901C1001.58 939.734 1004.98 935.54 1007.34 931.966C1008.23 930.617 1009.78 929.155 1011.63 927.4C1013.55 925.585 1015.79 923.454 1017.94 920.822C1023.45 914.068 1025.63 911.194 1027.89 908.411C1028.51 907.645 1029.08 906.931 1029.66 906.212C1031.47 903.938 1033.84 901.189 1036.28 898.351C1039.2 894.958 1042.22 891.432 1044.39 888.563C1050.82 882.822 1057.19 877.239 1063.87 871.254C1067.29 868.2 1071.72 866.26 1076.23 865.959C1080.74 865.661 1084.93 867.023 1087.91 869.868C1090.9 872.711 1092.45 876.843 1092.33 881.386C1092.2 885.926 1090.38 890.482 1087.39 894.044C1081.3 901.271 1075.63 907.976 1069.47 914.903C1061.56 923.746 1053.78 932.013 1045.97 939.537C1040.34 944.962 1034.02 950.808 1028.21 955.963C1027.6 956.501 1026.99 957.035 1026.39 957.566C1022.28 962.755 1018.21 967.694 1014.61 971.351C1011.78 974.246 1009.27 975.743 1007.13 977.004C1005.66 977.872 1004.37 978.625 1003.28 979.628C1002.7 980.166 1001.92 980.921 1001 981.82C997.466 985.281 990.229 992.105 983.067 996.62C979.886 998.633 976.036 1000.59 972.444 1002.34C966.733 1005.3 961.534 1007.79 959.504 1009.7C955.841 1013.12 951.469 1015.62 946.589 1018.39C942.202 1020.85 938.533 1022.76 936.938 1024.57C935.046 1026.72 932.893 1027.66 929.194 1029.25C926.707 1030.3 923.7 1031.52 919.957 1033.29C915.925 1035.19 911.797 1036.5 908.89 1037.23C904.479 1038.38 902.244 1038.76 897.207 1041.44C892.022 1044.22 886.731 1046.13 881.245 1046.37C878.868 1046.45 876.521 1046.63 873.524 1046.58C869.387 1046.5 865.294 1045.9 861.579 1044.33C858.378 1042.99 856.199 1041.03 854.531 1039.23C854.008 1038.67 853.535 1038.12 853.076 1037.59C850.953 1036.18 848.996 1034.55 847.22 1032.75C846.843 1032.55 846.443 1032.33 846.03 1032.09C843.91 1030.84 841.601 1029.39 839.426 1026.68C835.928 1022.17 834.904 1018.25 833.963 1013.67C833.246 1010.02 832.956 1007.05 832.138 1003.11C831.583 1000.39 830.907 997.619 830.331 994.82C829.465 990.68 828.85 986.12 829.129 983.479C829.231 982.426 829.733 981.515 830.238 980.617C830.241 980.613 830.244 980.609 830.247 980.605C830.282 980.544 830.315 980.483 830.349 980.422C830.025 973.302 830.021 966.79 830.262 959.784C830.194 959.17 830.129 958.546 830.069 957.926C829.756 955.053 829.496 952.292 828.893 950.375C828.223 948.379 828.416 943.066 828.683 938.015C828.86 934.653 829.102 931.119 829.139 928.162C829.158 926.447 829.986 924.885 830.819 923.428C831.596 922.066 832.4 920.667 832.619 918.991C832.728 918.152 832.706 917.213 832.686 916.206C832.668 915.32 832.651 914.38 832.728 913.412C832.8 912.512 833.502 910.624 834.425 908.187C835.004 906.643 835.628 905.063 836.255 903.308C837.06 898.505 837.953 893.636 838.929 888.736C838.742 887.647 838.395 886.65 837.841 885.784C837.443 885.162 836.925 884.584 836.397 883.99C835.678 883.181 834.936 882.343 834.44 881.322C834.052 880.525 834.035 879.7 834.407 879.249C834.581 879.039 834.835 878.911 835.066 878.795C835.329 878.661 835.564 878.542 835.616 878.333C835.652 878.181 835.545 877.984 835.416 877.742C835.21 877.356 834.945 876.854 835.099 876.241C835.673 873.961 836.515 871.41 837.357 868.904C838.276 866.174 839.185 863.523 839.71 861.334C840.296 858.884 841.879 855.6 843.488 852.308C844.616 849.99 845.725 847.765 846.524 845.766C847.304 843.814 847.66 841.633 848.011 839.516C848.431 836.975 848.847 834.524 849.979 832.694C850.208 832.325 850.967 832.019 851.916 831.641C852.588 831.376 853.357 831.07 854.102 830.68C854.927 828.184 855.787 825.694 856.677 823.212C856.626 823.096 856.575 822.978 856.522 822.859C856.52 822.857 856.519 822.855 856.517 822.853C855.324 820.165 853.705 816.46 856.613 813.039C857.352 812.169 858.292 811.793 859.138 811.452C859.969 811.118 860.713 810.821 861.088 810.136C861.513 809.358 861.465 808.247 861.416 807.034C861.346 805.332 861.273 803.428 862.491 801.98C862.574 801.881 862.665 801.775 862.757 801.664C863.631 800.612 864.927 799.056 866.881 797.757C869.14 792.62 871.503 787.489 873.918 782.432C877.935 774.023 882.18 765.594 886.461 757.322C888.57 753.245 891.964 749.935 895.977 748.155C899.995 746.374 904.281 746.249 908.017 747.795C911.753 749.343 914.693 752.452 916.324 756.492C917.951 760.533 918.113 765.174 916.87 769.482C914.854 776.453 912.916 783.382 910.946 790.397C910.89 790.778 910.832 791.16 910.769 791.538C910.304 794.352 910.452 797.185 910.609 800.019C910.645 800.67 910.682 801.322 910.711 801.973Z" fill="#12232D"/>
</svg>
