<svg width="602" height="602" viewBox="0 0 602 602" fill="none" xmlns="http://www.w3.org/2000/svg">
<circle cx="301" cy="301" r="301" fill="#FBFAF4"/>
<path d="M348.267 142.133C345.319 144.469 338.819 147.389 335.245 149.176C335.181 149.207 335.117 149.239 335.054 149.271C334.225 149.678 333.455 150.098 332.55 150.6C330.376 151.823 327.487 153.395 321.269 156.723C319.588 157.835 317.897 158.972 316.198 160.133C298.047 172.539 281.136 186.83 266.215 203.216C266.039 203.433 265.86 203.654 265.68 203.878C262.146 208.23 258.076 213.722 255.295 217.041C251.75 221.251 249.347 224.188 247.399 226.576C237.169 241.016 228.527 256.695 221.889 273.214C219.797 278.419 217.925 283.636 216.227 289.004C214.666 293.942 213.293 298.843 212.046 303.896C211.493 306.815 211.05 309.636 210.668 312.277C210.12 316.036 209.739 319.218 209.302 321.927C208.97 323.989 208.587 326.148 208.191 328.322C207.287 333.315 206.175 338.046 205.25 341.745C205.029 342.633 204.818 343.463 204.624 344.226C203.758 348.924 202.848 353.448 201.899 357.772C201.756 358.04 201.609 358.31 201.459 358.582C199.49 362.309 198.324 366.872 196.064 374.127C195.025 377.428 193.879 380.89 192.212 385.151C191.103 387.974 190.177 389.207 189.426 390.215C189.205 390.51 188.998 390.785 188.804 391.068C188.132 392.056 187.942 393.174 187.609 394.691C187.171 396.668 186.622 399.026 184.908 401.496C179.273 409.567 177.623 413.422 176.311 416.617C175.931 417.522 175.579 418.33 175.142 419.093C173.605 421.751 170.702 424.727 168.075 426.768C166.033 428.405 162.545 432.13 159.555 434.785C158.508 435.751 156.648 437.01 154.571 438.176C152.447 439.379 149.66 440.722 146.78 441.939C139.293 445.003 134.723 445.3 131.29 445.604C130.305 445.67 129.371 445.704 128.442 445.717C125.515 445.765 121.891 445.459 118.343 444.785C114.068 443.992 109.933 442.692 106.823 441.6C99.0801 438.028 92.2626 433.318 86.1128 427.741C82.9479 424.858 80.6053 421.298 79.6864 417.923C79.4005 417.009 79.2753 416.201 79.2717 415.49C79.1595 414.619 79.2039 413.858 79.3793 413.24C79.4891 412.98 79.5243 412.527 79.6446 412.197C79.758 411.856 79.9154 411.566 80.103 411.338C80.4799 410.875 80.9653 410.713 81.431 410.721C83.3073 410.928 85.0745 410.591 87.619 411.579C90.1277 412.498 93.0126 414.226 95.7777 416.377C101.362 420.716 107.554 424.246 113.947 426.627C121.719 429.525 129.723 430.543 137.111 429.079C142.29 428.076 147.192 425.843 151.723 422.577C152.181 422.248 152.642 421.904 153.103 421.546C156.525 418.222 159.396 414.368 161.435 411.527C163.168 409.113 164.435 407.688 165.668 406.212C166.494 405.222 167.24 404.274 167.773 403.355C168.07 402.844 168.464 402.13 168.936 401.24C170.955 397.508 173.908 391.073 176.754 385.242C178.011 382.719 179.723 379.317 181.079 376.573C183.091 372.492 184.996 367.987 185.409 366.036C186.219 362.371 187.695 357.812 188.834 354.068C189.913 350.55 190.827 347.294 190.941 345.328C191.079 342.971 191.648 341.038 192.415 338.384C192.954 336.502 193.61 334.166 194.298 330.834C194.663 329.063 195.015 327.51 195.349 326.116C195.742 324.478 196.126 323.096 196.481 321.842C197.412 318.569 198.129 316.174 198.498 312.416C198.928 308.159 199.662 303.819 200.667 300.551C201.128 299.048 201.586 297.264 202.072 295.449C202.716 293.04 203.422 290.535 204.275 288.332C204.985 286.493 205.834 285.025 206.583 283.759C206.817 283.363 207.042 282.984 207.253 282.616C207.736 281.131 208.228 279.656 208.725 278.192C208.752 277.936 208.777 277.666 208.805 277.385C208.935 275.997 209.143 274.183 209.691 272.117C210.569 268.824 211.815 266.207 213.207 263.378C214.294 261.177 215.443 258.919 216.55 256.269C217.299 254.477 218.109 252.345 218.933 250.259C220.159 247.151 221.4 244.186 222.577 242.198C223.016 241.457 223.56 240.909 224.099 240.371C224.102 240.369 224.105 240.367 224.108 240.364C224.144 240.328 224.181 240.291 224.217 240.255C226.632 235.288 229.208 230.35 231.905 225.535C232.102 225.097 232.305 224.656 232.506 224.221C233.505 222.067 234.523 219.973 235.013 218.513C235.546 216.923 237.568 213.407 239.867 209.713C241.364 207.3 242.914 204.892 244.191 202.813C244.929 201.609 245.924 200.698 246.949 199.776C247.907 198.916 248.89 198.045 249.727 196.911C250.153 196.335 250.567 195.668 251.01 194.962C251.399 194.34 251.813 193.685 252.281 193.03C252.716 192.421 253.88 191.228 255.381 189.738C256.299 188.828 257.391 187.753 258.504 186.647C261.154 183.457 263.868 180.352 266.688 177.293C267.145 176.533 267.481 175.813 267.656 175.151C267.781 174.676 267.828 174.211 267.879 173.735C267.948 173.088 268.024 172.416 268.316 171.656C268.542 171.064 268.956 170.514 269.359 170.277C269.547 170.167 269.732 170.124 269.898 170.084C270.089 170.039 270.26 169.999 270.39 169.87C270.485 169.777 270.535 169.631 270.598 169.452C270.699 169.166 270.832 168.794 271.216 168.422C272.651 167.03 274.311 165.568 276.023 164.099C277.907 162.482 279.755 160.949 281.164 159.673C282.755 158.23 285.307 156.436 287.838 154.741C289.585 153.572 291.432 152.358 292.924 151.309C294.401 150.271 295.774 149.059 297.167 147.861C298.839 146.423 300.452 145.071 302.033 144.248C302.353 144.082 302.88 144.063 303.538 144.042C304.002 144.029 304.544 144.006 305.127 143.931C307.008 142.646 308.893 141.408 310.777 140.217C310.822 140.142 310.869 140.065 310.915 139.987C310.916 139.986 310.917 139.984 310.917 139.983C311.967 138.228 313.522 135.765 316.94 134.573C317.805 134.272 318.479 134.277 319.088 134.28C319.685 134.285 320.216 134.291 320.819 134.007C321.503 133.685 322.176 133.078 322.91 132.425C323.947 131.503 325.073 130.505 326.589 130.019C326.691 129.987 326.8 129.953 326.914 129.916C327.994 129.571 329.588 129.074 331.302 128.897C335.646 126.822 340.042 124.911 344.525 123.144C351.994 120.204 359.613 117.698 367.401 115.688C371.152 114.721 375.072 114.555 378.041 115.261C381.096 115.948 382.846 117.422 383.226 119.221C383.595 121.029 382.608 123.035 380.409 124.994C378.278 126.933 375.179 128.67 371.859 129.925C366.406 131.974 360.941 134.356 355.701 136.888C355.431 137.043 355.16 137.199 354.887 137.352C352.815 138.517 351.193 139.81 349.456 141.185C349.062 141.499 348.666 141.816 348.267 142.133Z" fill="black"/>
<ellipse cx="310.121" cy="278.197" rx="9.12121" ry="13.6818" fill="black"/>
<path d="M322.417 285.615C322.538 286.408 321.868 287.69 321.435 288.355C321.427 288.367 321.42 288.38 321.412 288.392C321.31 288.553 321.224 288.709 321.121 288.89C320.865 289.32 320.545 289.922 319.498 290.961C319.25 291.303 318.98 291.64 318.692 291.963C316.819 294.116 313.621 295.99 310.121 295.785C308.015 295.692 306.031 294.853 304.564 293.726C304.512 293.694 304.459 293.661 304.405 293.628C303.361 292.984 302.291 291.994 301.835 291.244C301.248 290.293 300.994 289.609 300.801 289.051C299.335 286.085 298.803 283.023 298.659 280.033C298.631 279.419 298.622 278.81 298.63 278.197C298.635 277.87 298.643 277.549 298.657 277.222C298.693 276.362 298.767 275.499 298.882 274.638C298.886 274.127 298.889 273.634 298.908 273.172C298.934 272.525 298.99 271.939 299.101 271.473C299.364 270.345 300.012 269.157 300.571 268.333C300.661 268.198 300.749 268.07 300.831 267.953C301.182 267.242 301.587 266.542 302.065 265.862C302.123 265.838 302.182 265.813 302.242 265.789C302.997 265.503 303.531 264.859 304.646 264.004C305.135 263.638 305.742 263.239 306.549 262.909C307.072 262.699 307.405 262.759 307.661 262.811C307.737 262.826 307.808 262.841 307.877 262.851C308.114 262.884 308.307 262.729 308.56 262.555C308.881 262.331 309.324 262.073 309.922 262.231C309.99 262.249 310.057 262.267 310.121 262.285C311.811 262.788 312.523 262.755 313.204 262.692C313.403 262.678 313.585 262.672 313.758 262.703C314.324 262.8 314.958 263.312 315.307 263.784C315.594 264.152 316.357 264.578 316.951 264.916C317.179 265.043 317.415 265.284 317.673 265.579C317.942 265.884 318.232 266.245 318.582 266.602C319.461 267.508 319.841 268.059 320.153 268.49C320.242 268.616 320.32 268.731 320.399 268.848C320.65 269.219 320.92 269.701 321.167 270.195C321.465 270.79 321.73 271.402 321.954 271.87C322.223 273.162 322.346 274.459 322.363 275.74C322.372 276.397 322.07 277.047 321.528 277.506C320.985 277.965 320.257 278.199 319.506 278.197C318.755 278.197 318.032 277.973 317.466 277.627C316.901 277.277 316.538 276.832 316.428 276.356C316.208 275.39 315.908 274.464 315.554 273.586C315.123 272.519 314.612 271.527 314.067 270.637C313.684 270.012 313.266 269.45 312.819 268.976C312.773 268.927 312.728 268.88 312.681 268.833C312.156 268.606 311.681 268.51 311.402 268.438C311.171 268.379 311.064 268.236 310.956 268.113C310.882 268.029 310.812 267.958 310.727 267.948C310.682 267.942 310.619 267.941 310.545 267.944C310.427 267.948 310.282 267.961 310.121 267.976C309.868 268 309.598 268.027 309.28 268.009C309.051 267.994 308.734 267.952 308.397 267.968C307.918 267.984 307.409 268.13 307.271 268.335C307.026 268.691 306.62 268.985 306.266 269.302C305.929 269.601 305.647 269.907 305.631 270.167C305.613 270.479 305.444 270.645 305.199 270.915C305.029 271.105 304.823 271.346 304.627 271.721C304.402 272.158 304.186 272.452 304.004 272.709C303.75 273.073 303.564 273.366 303.613 273.878C303.668 274.445 303.684 275.01 303.557 275.433C303.499 275.626 303.474 275.855 303.453 276.093C303.426 276.411 303.406 276.739 303.318 277.041C303.246 277.287 303.092 277.493 302.957 277.676C302.916 277.733 302.876 277.789 302.841 277.843C302.84 277.961 302.84 278.079 302.842 278.197C302.843 278.286 302.845 278.374 302.848 278.462C302.872 278.495 302.899 278.53 302.926 278.566C303.065 278.745 303.236 278.962 303.334 279.229C303.488 279.65 303.441 280.026 303.403 280.433C303.374 280.746 303.353 281.08 303.444 281.441C303.506 281.686 303.622 281.955 303.744 282.215C303.925 282.602 304.118 282.968 304.149 283.253C304.161 283.359 304.102 283.473 304.044 283.589C304.043 283.589 304.043 283.59 304.043 283.59C304.039 283.598 304.035 283.606 304.031 283.614C304.317 284.251 304.65 284.855 305.025 285.41C305.072 285.451 305.12 285.492 305.166 285.532C305.394 285.725 305.623 285.901 305.842 285.963C306.08 286.033 306.401 286.355 306.756 286.64C306.987 286.826 307.231 286.997 307.453 287.091C307.582 287.146 307.602 287.296 307.629 287.452C307.655 287.599 307.687 287.749 307.803 287.813C307.862 287.844 307.94 287.856 308.023 287.865C308.095 287.873 308.172 287.88 308.24 287.897C308.304 287.914 308.389 288.033 308.506 288.174C308.578 288.261 308.663 288.357 308.76 288.442C309.082 288.525 309.384 288.556 309.666 288.547C309.736 288.475 309.797 288.374 309.847 288.241C309.882 288.145 309.914 288.029 309.942 287.91C309.981 287.749 310.016 287.581 310.05 287.446C310.078 287.341 310.102 287.3 310.119 287.344C310.12 287.346 310.12 287.348 310.121 287.35C310.128 287.372 310.134 287.406 310.14 287.438C310.147 287.478 310.154 287.513 310.161 287.512C310.167 287.511 310.172 287.482 310.178 287.448C310.187 287.393 310.197 287.322 310.216 287.318C310.289 287.305 310.373 287.317 310.464 287.321C310.564 287.326 310.673 287.318 310.75 287.267C310.833 287.212 311.011 287.25 311.226 287.249C311.373 287.249 311.534 287.232 311.658 287.178C311.778 287.128 311.854 286.993 311.92 286.86C312.002 286.699 312.07 286.541 312.238 286.5C312.271 286.492 312.379 286.545 312.517 286.606C312.615 286.649 312.728 286.697 312.84 286.732C312.978 286.577 313.119 286.412 313.259 286.241C313.251 286.225 313.243 286.209 313.235 286.193C313.235 286.193 313.235 286.192 313.234 286.192C313.054 285.825 312.771 285.369 313.2 285.239C313.31 285.203 313.457 285.227 313.592 285.246C313.723 285.264 313.842 285.279 313.896 285.23C313.958 285.174 313.937 285.056 313.911 284.929C313.875 284.75 313.83 284.554 314.006 284.464C314.018 284.458 314.031 284.451 314.045 284.444C314.172 284.375 314.358 284.271 314.662 284.205C314.933 283.741 315.191 283.248 315.429 282.736C315.826 281.881 316.168 280.964 316.432 280.002C316.561 279.538 316.931 279.101 317.495 278.757C318.059 278.418 318.769 278.198 319.506 278.197C320.243 278.196 320.958 278.426 321.5 278.875C322.041 279.323 322.353 279.961 322.368 280.606C322.392 281.66 322.345 282.731 322.204 283.808C322.205 283.867 322.205 283.926 322.205 283.985C322.201 284.419 322.291 284.857 322.368 285.304C322.386 285.406 322.402 285.511 322.417 285.615Z" fill="black"/>
<path d="M398.606 274.997C399.953 276.809 400.577 280.772 400.941 282.949C400.948 282.989 400.955 283.028 400.962 283.068C401.047 283.585 401.16 284.066 401.294 284.628C401.615 285.968 402.043 287.785 402.535 291.682C402.857 292.767 403.173 293.85 403.48 294.934C406.818 306.657 409.833 318.458 413.465 329.988C413.526 330.129 413.588 330.271 413.651 330.415C414.849 333.18 416.412 336.547 417.082 338.796C417.893 341.583 418.472 343.63 418.906 345.222C422.425 353.711 427.147 362.707 433.06 366.666C434.932 367.86 436.457 368.222 437.931 367.989C439.325 367.781 440.96 366.879 442.483 365.493C443.358 364.485 444.002 363.461 444.606 362.423C445.034 361.686 445.447 360.925 445.85 360.177C446.181 359.528 446.49 358.923 446.809 358.359C448.446 355.503 450.388 352.518 451.919 349.858C452.168 349.427 452.403 349.01 452.62 348.616C453.398 346.631 454.173 344.484 454.948 342.173C455.076 342.049 455.208 341.925 455.342 341.797C457.08 340.032 457.784 338.165 459.091 334.313C459.643 332.679 460.326 330.576 461.036 328.552C461.514 327.179 462.109 326.553 462.595 326.042C462.738 325.891 462.872 325.749 462.991 325.599C463.397 325.085 463.333 324.389 463.256 323.559C463.156 322.481 463.033 321.184 463.898 319.709C466.524 315.436 466.152 313.069 465.889 311.262C465.811 310.732 465.74 310.249 465.752 309.774C465.784 308.277 466.673 306.069 467.457 304.772C468.091 303.699 468.299 301.25 468.274 299.299C468.264 298.563 468.476 297.615 468.726 296.479C468.985 295.305 469.286 293.928 469.42 292.388C469.77 288.433 469.86 286.791 470 285.163C470.036 284.717 470.071 284.301 470.103 283.883C470.204 282.563 470.397 280.919 470.591 279.225C470.824 277.199 471.059 275.099 471.144 273.462C472.102 269.653 473.075 265.92 474.063 261.956C474.571 259.93 475.745 258.066 477.368 256.8C478.992 255.534 480.922 254.975 482.773 255.285C484.625 255.594 486.269 256.754 487.382 258.499C488.494 260.244 488.976 262.425 488.758 264.534C488.308 268.816 487.887 272.793 487.335 276.98C486.613 282.337 485.794 287.443 484.773 292.277C484.037 295.762 483.151 299.58 482.277 303.011C482.186 303.368 482.095 303.725 482.003 304.079C481.779 307.087 481.508 309.99 481.087 312.288C480.761 314.103 480.196 315.31 479.712 316.332C479.379 317.036 479.084 317.65 478.931 318.306C478.849 318.657 478.75 319.14 478.63 319.717C478.184 321.924 477.201 326.347 475.655 329.881C474.971 331.453 474.02 333.176 473.113 334.754C471.716 337.328 470.393 339.598 470.116 340.836C469.611 343.065 468.601 345.124 467.47 347.417C466.445 349.466 465.548 351.122 465.41 352.212C465.247 353.507 464.676 354.412 463.687 355.956C463.017 356.988 462.198 358.22 461.24 359.844C460.204 361.59 458.982 363.139 458.075 364.16C456.705 365.72 455.96 366.436 454.744 368.731C453.501 371.106 451.995 373.18 449.987 374.671C449.113 375.312 448.274 375.979 447.131 376.726C445.55 377.753 443.854 378.574 442.052 378.932C440.503 379.245 439.179 379.062 438.091 378.811C437.749 378.732 437.431 378.647 437.122 378.564C435.961 378.575 434.807 378.461 433.678 378.238C433.483 378.257 433.277 378.278 433.061 378.294C431.942 378.365 430.699 378.406 429.186 377.941C426.715 377.136 425.325 375.918 423.801 374.435C422.597 373.24 421.729 372.197 420.413 370.92C419.507 370.035 418.545 369.164 417.612 368.256C416.227 366.917 414.829 365.355 414.259 364.287C414.028 363.865 413.984 363.393 413.945 362.925C413.945 362.923 413.945 362.921 413.945 362.918C413.943 362.887 413.94 362.855 413.937 362.823C411.994 360.222 410.328 357.768 408.627 355.064C408.444 354.851 408.261 354.632 408.079 354.414C407.226 353.41 406.423 352.436 405.705 351.867C404.942 351.286 403.656 349.234 402.465 347.261C401.672 345.949 400.86 344.554 400.118 343.43C399.686 342.778 399.6 341.978 399.541 341.216C399.486 340.503 399.431 339.77 399.085 339.083C398.912 338.738 398.663 338.39 398.398 338.016C398.165 337.686 397.918 337.336 397.7 336.951C397.497 336.594 397.278 335.702 397.003 334.548C396.827 333.817 396.658 333.062 396.446 332.24C395.521 330.223 394.613 328.16 393.728 326.063C393.379 325.7 392.993 325.413 392.563 325.228C392.254 325.095 391.911 325.01 391.56 324.921C391.082 324.8 390.588 324.673 390.14 324.415C389.79 324.214 389.572 323.907 389.597 323.642C389.609 323.519 389.672 323.405 389.729 323.302C389.795 323.185 389.853 323.08 389.819 322.988C389.794 322.921 389.703 322.874 389.592 322.816C389.416 322.723 389.187 322.602 389.089 322.331C388.722 321.325 388.388 320.148 388.064 318.988C387.713 317.723 387.378 316.492 387.016 315.532C386.61 314.458 386.367 312.816 386.132 311.163C385.965 310.001 385.814 308.878 385.604 307.92C385.399 306.985 384.976 306.072 384.567 305.184C384.075 304.118 383.605 303.088 383.564 302.109C383.556 301.911 383.764 301.602 384.025 301.216C384.211 300.945 384.423 300.633 384.604 300.295C384.276 299.143 383.964 297.984 383.665 296.821C383.616 296.791 383.567 296.759 383.516 296.728C383.515 296.727 383.514 296.727 383.513 296.726C382.376 296.018 380.818 295.035 381.039 293.002C381.096 292.485 381.354 292.103 381.586 291.758C381.814 291.42 382.018 291.118 381.984 290.764C381.946 290.362 381.644 289.955 381.315 289.51C380.854 288.886 380.339 288.187 380.428 287.33C380.434 287.271 380.441 287.208 380.447 287.143C380.508 286.523 380.599 285.605 381.003 284.615C380.541 282.101 380.12 279.562 379.738 277.038C379.102 272.841 378.547 268.578 378.046 264.364C377.799 262.288 378.232 260.172 379.29 258.475C380.349 256.776 381.933 255.633 383.737 255.261C385.541 254.889 387.444 255.309 389.093 256.416C390.739 257.523 391.987 259.231 392.62 261.173C393.642 264.317 394.683 267.425 395.734 270.573C395.811 270.731 395.886 270.89 395.959 271.048C396.504 272.228 397.284 273.259 398.067 274.287C398.247 274.523 398.428 274.759 398.606 274.997Z" fill="black"/>
</svg>
